/* XPM */
static char *_af71aef8c1b40f584bfd86f64a3b4bb[] = {
/* columns rows colors chars-per-pixel */
"32 32 92 1 ",
"  c #604B89",
". c #614C89",
"X c #624D8A",
"o c #624E8B",
"O c #644F8C",
"+ c #66528E",
"@ c #6B5791",
"# c #6C5992",
"$ c #6D5A93",
"% c #6E5B93",
"& c #725F96",
"* c #746298",
"= c #756399",
"- c #766499",
"; c #78669B",
": c #79679C",
"> c #7A699C",
", c #7C6B9E",
"< c #7D6C9F",
"1 c #7F6EA0",
"2 c #806FA1",
"3 c #8170A2",
"4 c #8272A2",
"5 c #8373A3",
"6 c #8473A3",
"7 c #8575A5",
"8 c #8676A5",
"9 c #8777A6",
"0 c #8878A7",
"q c #8A7BA8",
"w c #8B7CA9",
"e c #8C7DAA",
"r c #9183AE",
"t c #9283AE",
"y c #9688B1",
"u c #988BB3",
"i c #9A8DB4",
"p c #9E92B7",
"a c #A296BA",
"s c #A397BB",
"d c #A599BC",
"f c #A79BBE",
"g c #ADA2C2",
"h c #AFA4C3",
"j c #B0A6C5",
"k c #B4AAC7",
"l c #B7AECA",
"z c #BAB1CC",
"x c #BCB3CD",
"c c #BFB7D0",
"v c #C3BBD2",
"b c #C4BDD4",
"n c #C7BFD5",
"m c #C8C0D6",
"M c #C9C2D7",
"N c #CBC4D8",
"B c #CCC6DA",
"V c #CEC8DB",
"C c #D1CBDD",
"Z c #D2CCDE",
"A c #D5CFE0",
"S c #D6D1E1",
"D c #D8D3E2",
"F c #D9D4E3",
"G c #DBD6E4",
"H c #DEDAE6",
"J c #E0DCE8",
"K c #E2DEE9",
"L c #E4E0EB",
"P c #E5E1EC",
"I c #E6E3EC",
"U c #ECEAF1",
"Y c #EDEBF2",
"T c #EEEBF2",
"R c #EEECF3",
"E c #F0EEF4",
"W c #F1EFF5",
"Q c #F2F0F5",
"! c #F3F1F6",
"~ c #F4F2F7",
"^ c #F4F3F7",
"/ c #F5F4F8",
"( c #F6F5F9",
") c #F8F7FA",
"_ c #F9F8FA",
"` c #FBFAFC",
"' c #FCFBFD",
"] c #FDFCFD",
"[ c #FDFDFE",
"{ c #FEFEFE",
"} c gray100",
"| c None",
/* pixels */
"d25555556555555555ezT[||||||||||",
"8                    qS[||||||||",
"0                      &F[||||||",
"0                        y_|||||",
"8                         %W||||",
"8                 ..       .Q|||",
"8                  yL5      %'||",
"8                pT[[-     . s[|",
"5              g/[|[u         U|",
"5         .  d~|||[u          s[",
"5          1E|||||S  @        +`",
"5         r[|[[|||~>B`%        L",
"5         D[GN[||||[|K.        b",
"5        :_)h[||||||[. =.      s",
"5       l[||||||||||[GP[-.     e",
"2     1Q|||||||||||||||M .     <",
"6     L|||||||||||||||W..      ,",
"8    .M||||'TPQ[||||||[BKZ     <",
"8      L|[vO   q_||||||||c     w",
"d      @[k      p[|||||[j    ..d",
"R..     s       =[|||||[8      Z",
"[x              >[||||||x      /",
"|[y             i[||||||Z    .r[",
"||[u           .V|||||||K    .K|",
"|||[i..        8[|||||||K    t[|",
"||||[b.       g`||||||||S   ./||",
"||||||_Zs5>tb/||||||||||z   P|||",
"|||||||||[[[|||||||||||[u  A||||",
"|||||||||||||||||||||||/ .H|||||",
"||||||||||||||||||||||[t1Q||||||",
"||||||||||||||||||||||Wb[|||||||",
"||||||||||||||||||||||[|||||||||"
};
