/* XPM */
static char *df36bf0557614607861172b526055033[] = {
/* columns rows colors chars-per-pixel */
"64 64 119 2 ",
"   c #604B89",
".  c #614C89",
"X  c #614C8A",
"o  c #624D8A",
"O  c #624E8B",
"+  c #634F8B",
"@  c #644F8C",
"#  c #65518D",
"$  c #66528E",
"%  c #67538E",
"&  c #67538F",
"*  c #69558F",
"=  c #695690",
"-  c #6A5690",
";  c #6C5992",
":  c #6D5A93",
">  c #6E5B94",
",  c #6F5C94",
"<  c #705D95",
"1  c #725F96",
"2  c #736097",
"3  c #746298",
"4  c #756399",
"5  c #766499",
"6  c #77659A",
"7  c #79679C",
"8  c #7B6A9D",
"9  c #7D6B9E",
"0  c #7E6D9F",
"q  c #7F6EA0",
"w  c #8070A1",
"e  c #8170A2",
"r  c #8373A3",
"t  c #8473A3",
"y  c #8575A5",
"u  c #8676A5",
"i  c #8979A7",
"p  c #897AA8",
"a  c #8A7BA8",
"s  c #8D7EAA",
"d  c #8E7FAB",
"f  c #8F80AC",
"g  c #8F81AC",
"h  c #9283AE",
"j  c #9486B0",
"k  c #9688B1",
"l  c #9789B2",
"z  c #988BB3",
"x  c #9B8DB4",
"c  c #9E91B7",
"v  c #A194B9",
"b  c #A195BA",
"n  c #A397BB",
"m  c #A599BC",
"M  c #A69BBD",
"N  c #ACA1C1",
"B  c #ADA2C2",
"V  c #AEA3C3",
"C  c #B0A5C4",
"Z  c #B0A6C5",
"A  c #B2A8C6",
"S  c #B4AAC7",
"D  c #B5ABC8",
"F  c #B7AECA",
"G  c #B9B0CB",
"H  c #BAB1CC",
"J  c #BBB2CD",
"K  c #BCB3CD",
"L  c #BEB6CF",
"P  c #BFB7D0",
"I  c #C1B9D1",
"U  c #C4BCD3",
"Y  c #C8C0D6",
"T  c #C9C2D7",
"R  c #CCC5D9",
"E  c #CCC6DA",
"W  c #CEC8DB",
"Q  c #D0CADC",
"!  c #D2CCDE",
"~  c #D4CEDF",
"^  c #D5D0E0",
"/  c #D8D3E2",
"(  c #DAD5E3",
")  c #DCD7E5",
"_  c #DFDAE7",
"`  c #DFDBE7",
"'  c #E0DCE8",
"]  c #E1DDE9",
"[  c #E2DEE9",
"{  c #E6E3EC",
"}  c #E7E3ED",
"|  c #E8E5EE",
" . c #EAE7EF",
".. c #EBE8F0",
"X. c #ECE9F1",
"o. c #ECEAF1",
"O. c #EDEBF2",
"+. c #EEECF3",
"@. c #EFEDF3",
"#. c #F0EEF4",
"$. c #F1EFF4",
"%. c #F1EFF5",
"&. c #F3F1F6",
"*. c #F4F2F7",
"=. c #F4F3F7",
"-. c #F5F4F8",
";. c #F6F5F9",
":. c #F7F6F9",
">. c #F8F7FA",
",. c #F9F9FB",
"<. c #FAF9FB",
"1. c #FBFAFC",
"2. c #FBFBFC",
"3. c #FCFBFD",
"4. c #FDFCFD",
"5. c #FDFDFE",
"6. c #FEFEFE",
"7. c gray100",
"8. c None",
/* pixels */
"' B B V B V V B V V B V V B V V B V V B V V B V V B V V B V V B V V B C F R X.6.8.8.8.8.8.8.8.8.8.8.8.8.8.8.8.8.8.8.8.8.8.8.8.8.",
"G     X     X     X     X     X     X     X     X     X     X     X     X   X 8 D } 6.8.8.8.8.8.8.8.8.8.8.8.8.8.8.8.8.8.8.8.8.8.",
"H                                                                                   1 F *.6.8.8.8.8.8.8.8.8.8.8.8.8.8.8.8.8.8.8.",
"H                                                                                         x X.6.8.8.8.8.8.8.8.8.8.8.8.8.8.8.8.8.",
"H                                                                                             x &.8.8.8.8.8.8.8.8.8.8.8.8.8.8.8.",
"G                                                                                                 F 6.8.8.8.8.8.8.8.8.8.8.8.8.8.",
"F                                                                                                   3 } 6.8.8.8.8.8.8.8.8.8.8.8.",
"F                                                                                                       H 6.8.8.8.8.8.8.8.8.8.8.",
"F                                                                                                         z 6.8.8.8.8.8.8.8.8.8.",
"D                                                                                                           e 2.8.8.8.8.8.8.8.8.",
"S                                                                                                             q 3.8.8.8.8.8.8.8.",
"S                                                                                                               y 6.8.8.8.8.8.8.",
"A                                                                           X   w D ;                             n 6.8.8.8.8.8.",
"A                                                                           q / 6.8.m                               R 8.8.8.8.8.",
"Z                                                                     X k } 6.8.8.6.g                                 &.8.8.8.8.",
"Z                                                             X     c X.6.8.8.8.8.|                                   h 6.8.8.8.",
"C                                                           X X B =.6.8.8.8.8.8.@.#                                     ` 8.8.8.",
"C                                                       X X Z -.8.8.8.8.8.8.8.X.X                                       e 6.8.8.",
"B                                                       A -.8.8.8.8.8.8.8.8.X.X X X                                        .8.8.",
"B                                                   x *.8.8.8.8.8.8.8.8.8.*.X     X                                       n 6.8.",
"B                                               h | 6.8.8.8.8.8.8.8.8.8.6.x X                                             * 3.8.",
"B                                             U 6.8.8.8.8.8.8.8.8.8.8.8.6.3         ; #   X                                 ' 8.",
"B                                         # ' 8.8.8.8.8.8.8.8.8.8.8.8.8.6.c     X m 2.@.X X                                 F 8.",
"B                                         | 8.8.8.8.8.6.6.8.8.8.8.8.8.8.8.2.i y _ 6.8.6.3                                 X a 6.",
"B                                       ; 6.8.8.8.6.I j 6.8.8.8.8.8.8.8.8.8.6.6.8.8.8.~ X                                   , 6.",
"B                                       w 6.8.6.! # 1 <.8.8.8.8.8.8.8.8.8.8.8.8.8.8.@.X                                       *.",
"N                                       F 8.8.M   9 2.8.8.8.8.8.8.8.8.8.8.8.8.8.8.2.,                                         } ",
"B                                     I 6.8.8.>.D -.8.8.8.8.8.8.8.8.8.8.8.8.8.8.8.&.        3 a                               W ",
"N                                 3 | 8.8.8.8.8.8.8.8.8.8.8.8.8.8.8.8.8.8.8.8.8.8.6.P   3 R 6.6.5                             U ",
"B                               L 2.8.8.8.8.8.8.8.8.8.8.8.8.8.8.8.8.8.8.8.8.8.8.8.8.6.2.6.8.8.6.w X                           m ",
"N                           n -.8.8.8.8.8.8.8.8.8.8.8.8.8.8.8.8.8.8.8.8.8.8.8.8.8.8.8.8.8.8.6.Z                               c ",
"B                         R 6.8.8.8.8.8.8.8.8.8.8.8.8.8.8.8.8.8.8.8.8.8.8.8.8.8.8.8.8.8.8.6.Z                                 z ",
"B                       ; 6.8.8.8.8.8.8.8.8.8.8.8.8.8.8.8.8.8.8.8.8.8.8.8.8.8.8.8.8.8.8.8.U                                   j ",
"V                       A 8.8.8.8.8.8.8.8.8.8.8.8.8.8.8.8.8.8.8.8.8.8.8.8.8.8.8.8.8.8.8.8.~                                   j ",
"Z X                     m 6.8.8.8.8.8.8.8.8.8.8.8.6.6.6.8.8.8.8.8.8.8.8.8.8.8.8.8.8.8.8.8.6.y   3 I _ -                       l ",
"A                     X X R 8.8.8.8.8.8.8.8.6.| Y M n m K _ 2.8.8.8.8.8.8.8.8.8.8.8.8.8.8.8.6.*.6.8.8.n                       x ",
"S                           } 8.8.8.8.8.6.Y 1   X           # Y 6.8.8.8.8.8.8.8.8.8.8.8.8.8.8.8.8.8.6.d                       m ",
"K                           * >.8.8.8.-.i                   X X Z 6.8.8.8.8.8.8.8.8.8.8.8.8.8.8.8.6.S                       X I ",
"^                             d 6.8.2.1                           X.8.8.8.8.8.8.8.8.8.8.8.8.8.8.-.z                         X ^ ",
"-.*                             } 6.h                             B 8.8.8.8.8.8.8.8.8.8.8.8.8.6.7 X                           X.",
"6.c                             I `                               w 6.8.8.8.8.8.8.8.8.8.8.8.8.6.h                           - 2.",
"8.@.                            0 0                               2 6.8.8.8.8.8.8.8.8.8.8.8.8.8.Y                           d 6.",
"8.6.V                           X                               X 5 6.8.8.8.8.8.8.8.8.8.8.8.8.8.' X                         U 8.",
"8.8.6.q                                                           d 6.8.8.8.8.8.8.8.8.8.8.8.8.8.-.X                         @.8.",
"8.8.8.=.#                                                         B 8.8.8.8.8.8.8.8.8.8.8.8.8.8.6.; X                     w 6.8.",
"8.8.8.8.@.X                                                     X ! 8.8.8.8.8.8.8.8.8.8.8.8.8.8.6.6                       W 8.8.",
"8.8.8.8.8.@.X                                                     -.8.8.8.8.8.8.8.8.8.8.8.8.8.8.6.d                     ; 6.8.8.",
"8.8.8.8.8.8.X.#                                                 d 6.8.8.8.8.8.8.8.8.8.8.8.8.8.8.8.x                     U 8.8.8.",
"8.8.8.8.8.8.8.#.# X                                             @.8.8.8.8.8.8.8.8.8.8.8.8.8.8.8.8.x                   5 6.8.8.8.",
"8.8.8.8.8.8.8.8.#.>                                       X   ~ 6.8.8.8.8.8.8.8.8.8.8.8.8.8.8.8.6.h                 X _ 8.8.8.8.",
"8.8.8.8.8.8.8.8.8.<.g                                   X # ' 8.8.8.8.8.8.8.8.8.8.8.8.8.8.8.8.8.6.5               X B 6.8.8.8.8.",
"8.8.8.8.8.8.8.8.8.8.6.! >                               B -.8.8.8.8.8.8.8.8.8.8.8.8.8.8.8.8.8.8.6.>               7 6.8.8.8.8.8.",
"8.8.8.8.8.8.8.8.8.8.8.8.2.^ g           X X   X   2 F =.8.8.8.8.8.8.8.8.8.8.8.8.8.8.8.8.8.8.8.8.-.O             # *.8.8.8.8.8.8.",
"8.8.8.8.8.8.8.8.8.8.8.8.8.8.6.>.` K x t 5 w c Y X.6.8.8.8.8.8.8.8.8.8.8.8.8.8.8.8.8.8.8.8.8.8.8.X.X              .8.8.8.8.8.8.8.",
"8.8.8.8.8.8.8.8.8.8.8.8.8.8.8.8.8.8.6.6.6.6.6.8.8.8.8.8.8.8.8.8.8.8.8.8.8.8.8.8.8.8.8.8.8.8.8.8.Q             ) 8.8.8.8.8.8.8.8.",
"8.8.8.8.8.8.8.8.8.8.8.8.8.8.8.8.8.8.8.8.8.8.8.8.8.8.8.8.8.8.8.8.8.8.8.8.8.8.8.8.8.8.8.8.8.8.8.6.n           / 8.8.8.8.8.8.8.8.8.",
"8.8.8.8.8.8.8.8.8.8.8.8.8.8.8.8.8.8.8.8.8.8.8.8.8.8.8.8.8.8.8.8.8.8.8.8.8.8.8.8.8.8.8.8.8.8.8.<.X     X X _ 8.8.8.8.8.8.8.8.8.8.",
"8.8.8.8.8.8.8.8.8.8.8.8.8.8.8.8.8.8.8.8.8.8.8.8.8.8.8.8.8.8.8.8.8.8.8.8.8.8.8.8.8.8.8.8.8.8.8.P X     - X.8.8.8.8.8.8.8.8.8.8.8.",
"8.8.8.8.8.8.8.8.8.8.8.8.8.8.8.8.8.8.8.8.8.8.8.8.8.8.8.8.8.8.8.8.8.8.8.8.8.8.8.8.8.8.8.8.8.8.-.  X X z <.8.8.8.8.8.8.8.8.8.8.8.8.",
"8.8.8.8.8.8.8.8.8.8.8.8.8.8.8.8.8.8.8.8.8.8.8.8.8.8.8.8.8.8.8.8.8.8.8.8.8.8.8.8.8.8.8.8.8.6.d     R 6.8.8.8.8.8.8.8.8.8.8.8.8.8.",
"8.8.8.8.8.8.8.8.8.8.8.8.8.8.8.8.8.8.8.8.8.8.8.8.8.8.8.8.8.8.8.8.8.8.8.8.8.8.8.8.8.8.8.8.6.S   z -.8.8.8.8.8.8.8.8.8.8.8.8.8.8.8.",
"8.8.8.8.8.8.8.8.8.8.8.8.8.8.8.8.8.8.8.8.8.8.8.8.8.8.8.8.8.8.8.8.8.8.8.8.8.8.8.8.8.8.8.8.6.Y ' 6.8.8.8.8.8.8.8.8.8.8.8.8.8.8.8.8.",
"8.8.8.8.8.8.8.8.8.8.8.8.8.8.8.8.8.8.8.8.8.8.8.8.8.8.8.8.8.8.8.8.8.8.8.8.8.8.8.8.8.8.8.8.8.8.8.8.8.8.8.8.8.8.8.8.8.8.8.8.8.8.8.8.",
"8.8.8.8.8.8.8.8.8.8.8.8.8.8.8.8.8.8.8.8.8.8.8.8.8.8.8.8.8.8.8.8.8.8.8.8.8.8.8.8.8.8.8.8.8.8.8.8.8.8.8.8.8.8.8.8.8.8.8.8.8.8.8.8."
};
