/* XPM */
static char *c9b82947e8f14361e28e142c82556383[] = {
/* columns rows colors chars-per-pixel */
"16 16 65 1 ",
"  c #604B89",
". c #65518D",
"X c #69558F",
"o c #695690",
"O c #6A5690",
"+ c #6B5891",
"@ c #6C5892",
"# c #6D5A93",
"$ c #6E5B94",
"% c #6F5C94",
"& c #705D95",
"* c #715E95",
"= c #715F96",
"- c #756298",
"; c #766499",
": c #79679C",
"> c #7B699D",
", c #7E6D9F",
"< c #7F6EA0",
"1 c #8170A2",
"2 c #8271A2",
"3 c #8878A7",
"4 c #897AA8",
"5 c #9E91B7",
"6 c #A094B9",
"7 c #A69ABD",
"8 c #AA9EC0",
"9 c #ABA0C1",
"0 c #ACA1C1",
"q c #AEA3C3",
"w c #B0A6C5",
"e c #B4AAC7",
"r c #BAB1CC",
"t c #BCB3CD",
"y c #BFB6CF",
"u c #C3BBD3",
"i c #C4BDD4",
"p c #CBC4D9",
"a c #CEC8DB",
"s c #D4CEDF",
"d c #D8D3E2",
"f c #DBD7E5",
"g c #DFDAE7",
"h c #E4E0EB",
"j c #E5E1EC",
"k c #E6E3EC",
"l c #E9E6EF",
"z c #EAE7EF",
"x c #EEECF3",
"c c #EFEDF3",
"v c #F0EEF4",
"b c #F4F2F7",
"n c #F4F3F7",
"m c #F5F4F8",
"M c #F6F5F9",
"N c #F8F7FA",
"B c #F9F8FA",
"V c #FAF9FB",
"C c #FBFBFC",
"Z c #FCFBFD",
"A c #FDFCFD",
"S c #FDFDFE",
"D c #FEFEFE",
"F c gray100",
"G c None",
/* pixels */
"1$*%*%*%%<uNGGGG",
"*          opFGG",
"*            5FG",
"*       ;fi   wF",
"*     :dFM+    v",
"*    qZGGy8+   e",
"%   oncFGFl@.  4",
"*  6NGGGGGCj   *",
"*  nGFMFGGGh7  @",
";  6n3 $nGGFa  >",
"a   o   sGGF1  0",
"Fr      jGGG0  z",
"GFu    rFGGG7 7F",
"GGGNgdMGGGGG1,CG",
"GGGGGGGGGGGx6FGG",
"GGGGGGGGGGGnFGGG"
};
